<?xml version="1.0" ?><svg data-name="Layer 1" id="Layer_1" viewBox="0 0 256 256" xmlns="http://www.w3.org/2000/svg"><defs><style>.cls-1{fill:none;stroke:#FFFFFF;stroke-linecap:round;stroke-linejoin:round;stroke-width:6px;}</style></defs><title/><path class="cls-1" d="M77,122.89a35.83,35.83,0,0,1,0-71.65h0a46.14,46.14,0,0,1,91.32-8.41"/><path class="cls-1" d="M77,122.89H199.74a15,15,0,0,0,15-15h0a15,15,0,0,0-15-15h-.15A32.19,32.19,0,0,0,153.5,49.23"/><path class="cls-1" d="M145.68,58.32l-.24.33"/><g data-name="Electricity Symbol" id="Electricity_Symbol"><polygon class="cls-1" points="163.83 189.89 137.94 187.76 142.44 137.87 101.44 191.49 127.33 193.62 122.87 243 163.83 189.89"/></g><line class="cls-1" x1="98" x2="86.16" y1="137.87" y2="153.35"/><line class="cls-1" x1="175.67" x2="163.83" y1="159.7" y2="175.17"/></svg>